<svg id="visual" viewBox="0 0 960 540" width="960" height="540" xmlns="http://www.w3.org/2000/svg" xmlns:xlink="http://www.w3.org/1999/xlink" version="1.1"><path d="M0 331L22.8 342.2C45.7 353.3 91.3 375.7 137 377.5C182.7 379.3 228.3 360.7 274 352C319.7 343.3 365.3 344.7 411.2 343.5C457 342.3 503 338.7 548.8 334.5C594.7 330.3 640.3 325.7 686 329.7C731.7 333.7 777.3 346.3 823 352.2C868.7 358 914.3 357 937.2 356.5L960 356L960 541L937.2 541C914.3 541 868.7 541 823 541C777.3 541 731.7 541 686 541C640.3 541 594.7 541 548.8 541C503 541 457 541 411.2 541C365.3 541 319.7 541 274 541C228.3 541 182.7 541 137 541C91.3 541 45.7 541 22.8 541L0 541Z" fill="#363d7d"></path><path d="M0 399L22.8 404.3C45.7 409.7 91.3 420.3 137 424C182.7 427.7 228.3 424.3 274 424.3C319.7 424.3 365.3 427.7 411.2 428.3C457 429 503 427 548.8 414.8C594.7 402.7 640.3 380.3 686 379.3C731.7 378.3 777.3 398.7 823 402.2C868.7 405.7 914.3 392.3 937.2 385.7L960 379L960 541L937.2 541C914.3 541 868.7 541 823 541C777.3 541 731.7 541 686 541C640.3 541 594.7 541 548.8 541C503 541 457 541 411.2 541C365.3 541 319.7 541 274 541C228.3 541 182.7 541 137 541C91.3 541 45.7 541 22.8 541L0 541Z" fill="#2d2f6b"></path><path d="M0 429L22.8 424C45.7 419 91.3 409 137 403.7C182.7 398.3 228.3 397.7 274 403.8C319.7 410 365.3 423 411.2 427.3C457 431.7 503 427.3 548.8 430.2C594.7 433 640.3 443 686 445.5C731.7 448 777.3 443 823 436.2C868.7 429.3 914.3 420.7 937.2 416.3L960 412L960 541L937.2 541C914.3 541 868.7 541 823 541C777.3 541 731.7 541 686 541C640.3 541 594.7 541 548.8 541C503 541 457 541 411.2 541C365.3 541 319.7 541 274 541C228.3 541 182.7 541 137 541C91.3 541 45.7 541 22.8 541L0 541Z" fill="#23225a"></path><path d="M0 464L22.8 460.5C45.7 457 91.3 450 137 451C182.7 452 228.3 461 274 462.8C319.7 464.7 365.3 459.3 411.2 454C457 448.7 503 443.3 548.8 447.7C594.7 452 640.3 466 686 471.7C731.7 477.3 777.3 474.7 823 471C868.7 467.3 914.3 462.7 937.2 460.3L960 458L960 541L937.2 541C914.3 541 868.7 541 823 541C777.3 541 731.7 541 686 541C640.3 541 594.7 541 548.8 541C503 541 457 541 411.2 541C365.3 541 319.7 541 274 541C228.3 541 182.7 541 137 541C91.3 541 45.7 541 22.8 541L0 541Z" fill="#191549"></path><path d="M0 493L22.8 490C45.7 487 91.3 481 137 477.8C182.7 474.7 228.3 474.3 274 478.7C319.7 483 365.3 492 411.2 492.8C457 493.7 503 486.3 548.8 484.2C594.7 482 640.3 485 686 483.8C731.7 482.7 777.3 477.3 823 478.7C868.7 480 914.3 488 937.2 492L960 496L960 541L937.2 541C914.3 541 868.7 541 823 541C777.3 541 731.7 541 686 541C640.3 541 594.7 541 548.8 541C503 541 457 541 411.2 541C365.3 541 319.7 541 274 541C228.3 541 182.7 541 137 541C91.3 541 45.7 541 22.8 541L0 541Z" fill="#100539"></path></svg>