<?xml version="1.0" encoding="UTF-8"?><svg xmlns="http://www.w3.org/2000/svg" xmlns:xlink="http://www.w3.org/1999/xlink" height="246.7" preserveAspectRatio="xMidYMid meet" version="1.0" viewBox="0.0 0.0 400.5 246.7" width="400.5" zoomAndPan="magnify"><defs><clipPath id="a"><path d="M 0 105 L 400.5 105 L 400.5 167 L 0 167 Z M 0 105"/></clipPath><clipPath id="b"><path d="M 0 166 L 400.5 166 L 400.5 246.730469 L 0 246.730469 Z M 0 166"/></clipPath><clipPath id="c"><path d="M 49 166 L 400.5 166 L 400.5 226 L 49 226 Z M 49 166"/></clipPath><clipPath id="d"><path d="M 1 166 L 400.5 166 L 400.5 223 L 1 223 Z M 1 166"/></clipPath><clipPath id="e"><path d="M 0 0 L 400.5 0 L 400.5 167 L 0 167 Z M 0 0"/></clipPath><clipPath id="f"><path d="M 0 127 L 400.5 127 L 400.5 167 L 0 167 Z M 0 127"/></clipPath></defs><g><g clip-path="url(#a)" id="change1_1"><path d="M 400.5 166.210938 L 0 166.210938 C 0 166.210938 44.699219 163.8125 71 152.613281 C 107 143.113281 127.601562 93.613281 163.601562 108.714844 C 199.601562 123.8125 203.5 169.3125 237 147.011719 C 270.5 124.714844 285.699219 135.8125 296 144.613281 C 300.808594 148.660156 304.734375 143.207031 308.507812 137.757812 C 312.660156 131.757812 316.632812 125.761719 321.398438 132.414062 C 321.898438 133.214844 322.398438 134.011719 322.800781 134.8125 C 335.101562 160.3125 373.800781 166.210938 400.5 166.210938" fill="#f35d51"/></g><g clip-path="url(#b)" id="change2_1"><path d="M 400.5 166.210938 C 389.101562 166.914062 385.699219 180.3125 367 189.710938 C 359.574219 193.445312 355.222656 191.613281 350.816406 189.777344 C 344.125 186.996094 337.308594 184.210938 319.398438 200.914062 C 306.875 212.621094 298.015625 205.054688 283.390625 197.488281 C 272.910156 192.066406 259.46875 186.644531 239.601562 188.3125 C 192 192.3125 199.101562 245.3125 156.199219 246.710938 C 137.296875 247.285156 127.402344 233.160156 118.578125 219.035156 C 107.375 201.105469 97.898438 183.175781 73.898438 195.3125 C 31 217.011719 0 166.210938 0 166.210938 L 400.5 166.210938" fill="#415493"/></g><g clip-path="url(#c)" id="change3_1"><path d="M 214.398438 225.511719 C 206.8125 225.511719 199.835938 224.390625 193.296875 222.621094 C 203.796875 207.519531 213.433594 190.511719 239.601562 188.3125 C 242.097656 188.101562 244.488281 188.007812 246.789062 188.007812 C 254.195312 188.007812 260.617188 189.019531 266.292969 190.578125 C 251.390625 203.886719 237.859375 224.480469 214.398438 225.511719 M 79.132812 215.136719 C 68.859375 215.136719 59.457031 210.019531 49.71875 200.617188 C 50.625 200.675781 51.535156 200.707031 52.460938 200.707031 C 59.167969 200.703125 66.351562 199.132812 73.898438 195.3125 C 79.367188 192.546875 84.078125 191.34375 88.230469 191.34375 C 97.03125 191.34375 103.3125 196.761719 108.898438 204.203125 C 107.035156 204.949219 105.140625 205.816406 103.199219 206.8125 C 94.425781 212.464844 86.554688 215.136719 79.132812 215.136719 M 356.898438 206.8125 C 342.351562 206.8125 334.359375 201.214844 326.234375 195.042969 C 333.507812 189.398438 338.546875 187.675781 342.585938 187.675781 C 345.742188 187.675781 348.289062 188.726562 350.816406 189.777344 C 353.347656 190.832031 355.855469 191.882812 358.941406 191.882812 C 361.230469 191.882812 363.835938 191.304688 367 189.710938 C 385.699219 180.3125 389.101562 166.914062 400.5 166.210938 C 400.5 166.210938 387.5 206.8125 356.898438 206.8125" fill="#e2c1e2"/></g><g clip-path="url(#d)" id="change4_1"><path d="M 193.296875 222.621094 C 168.875 216.011719 150.433594 200.367188 127.980469 200.367188 C 121.96875 200.367188 115.675781 201.488281 108.898438 204.203125 C 103.3125 196.761719 97.03125 191.34375 88.230469 191.34375 C 84.078125 191.34375 79.367188 192.546875 73.898438 195.3125 C 66.351562 199.132812 59.167969 200.703125 52.460938 200.707031 C 51.535156 200.707031 50.625 200.675781 49.71875 200.617188 C 46.207031 197.226562 42.652344 193.277344 39 188.8125 C 22.835938 168.855469 6.804688 166.445312 1.683594 166.210938 L 400.5 166.210938 C 389.101562 166.914062 385.699219 180.3125 367 189.710938 C 363.835938 191.304688 361.230469 191.882812 358.941406 191.882812 C 355.855469 191.882812 353.347656 190.832031 350.816406 189.777344 C 348.289062 188.726562 345.742188 187.675781 342.585938 187.675781 C 338.546875 187.675781 333.507812 189.398438 326.234375 195.042969 C 317.992188 188.78125 309.605469 181.929688 294.101562 179.714844 C 292.738281 179.515625 291.417969 179.417969 290.125 179.417969 C 281.011719 179.417969 273.492188 184.148438 266.292969 190.578125 C 260.617188 189.019531 254.195312 188.007812 246.789062 188.007812 C 244.488281 188.007812 242.097656 188.101562 239.601562 188.3125 C 213.433594 190.511719 203.796875 207.519531 193.296875 222.621094" fill="#a58cc1"/></g><g clip-path="url(#e)" id="change5_1"><path d="M 400.5 166.210938 C 373.800781 166.210938 335.101562 160.3125 322.800781 134.8125 C 322.398438 134.011719 321.898438 133.214844 321.398438 132.414062 C 319.914062 130.339844 318.507812 129.496094 317.148438 129.496094 C 314.140625 129.496094 311.367188 133.628906 308.507812 137.757812 C 305.648438 141.886719 302.703125 146.015625 299.351562 146.015625 C 298.28125 146.015625 297.164062 145.59375 296 144.613281 C 290.179688 139.640625 282.796875 133.933594 271.429688 133.933594 C 262.679688 133.933594 251.566406 137.316406 237 147.011719 C 230.605469 151.269531 225.292969 153.054688 220.628906 153.054688 C 213.050781 153.054688 207.1875 148.347656 201.199219 141.847656 C 202.246094 141.929688 203.285156 141.972656 204.316406 141.972656 C 222.691406 141.972656 239.007812 128.285156 251.800781 76.113281 C 264.414062 24.664062 284.824219 -0.00390625 303.851562 -0.00390625 C 315.300781 -0.00390625 326.25 8.921875 334.699219 26.3125 C 346.699219 50.914062 353.398438 81.214844 357.101562 105.113281 C 361.101562 131.214844 377.199219 153.8125 400.5 166.210938 M 0 166.210938 C 0 166.210938 34.398438 157.3125 53.300781 118.214844 C 61.441406 101.375 72.234375 93.546875 82.316406 93.546875 C 94.84375 93.546875 106.273438 105.632812 110.152344 127.519531 C 98.289062 137.785156 85.976562 148.660156 71 152.613281 C 45.695312 163.390625 3.363281 166.019531 0.1875 166.203125 C 0.0625 166.207031 0 166.210938 0 166.210938" fill="#fcd5b8"/></g><g clip-path="url(#f)" id="change6_1"><path d="M 400.5 166.210938 L 1.683594 166.210938 C 1.320312 166.195312 1.011719 166.191406 0.765625 166.191406 C 0.511719 166.191406 0.316406 166.195312 0.1875 166.203125 C 3.363281 166.019531 45.695312 163.390625 71 152.613281 C 85.976562 148.660156 98.289062 137.785156 110.152344 127.519531 C 110.398438 128.910156 110.617188 130.34375 110.800781 131.8125 C 112.367188 144.628906 115.445312 148.921875 119.824219 148.921875 C 124.273438 148.921875 130.0625 144.503906 136.988281 140.089844 C 143.914062 135.671875 151.980469 131.253906 160.972656 131.253906 C 164.074219 131.253906 167.285156 131.78125 170.601562 133.011719 C 181.199219 136.953125 191.46875 141.082031 201.199219 141.847656 C 207.1875 148.347656 213.050781 153.054688 220.628906 153.054688 C 225.292969 153.054688 230.605469 151.269531 237 147.011719 C 251.566406 137.316406 262.679688 133.933594 271.429688 133.933594 C 282.796875 133.933594 290.179688 139.640625 296 144.613281 C 297.164062 145.59375 298.28125 146.015625 299.351562 146.015625 C 302.703125 146.015625 305.648438 141.886719 308.507812 137.757812 C 311.367188 133.628906 314.140625 129.496094 317.148438 129.496094 C 318.507812 129.496094 319.914062 130.339844 321.398438 132.414062 C 321.898438 133.214844 322.398438 134.011719 322.800781 134.8125 C 335.101562 160.3125 373.800781 166.210938 400.5 166.210938" fill="#f8a382"/></g><g id="change7_1"><path d="M 0 166.210938 C 0 166.210938 0.0625 166.207031 0.1875 166.203125 C 0.0625 166.210938 0 166.210938 0 166.210938" fill="#f5c4af"/></g><g id="change8_1"><path d="M 1.683594 166.210938 L 0 166.210938 C 0 166.210938 0.0625 166.210938 0.1875 166.203125 C 0.316406 166.195312 0.511719 166.191406 0.765625 166.191406 C 1.011719 166.191406 1.320312 166.195312 1.683594 166.210938" fill="#f3b29e"/></g></g></svg>