<?xml version="1.0" encoding="UTF-8"?><svg xmlns="http://www.w3.org/2000/svg" xmlns:xlink="http://www.w3.org/1999/xlink" height="200.1" preserveAspectRatio="xMidYMid meet" version="1.0" viewBox="0.0 0.0 400.5 200.1" width="400.5" zoomAndPan="magnify"><defs><clipPath id="a"><path d="M 0 5 L 400.5 5 L 400.5 101 L 0 101 Z M 0 5"/></clipPath><clipPath id="b"><path d="M 0 100 L 400.5 100 L 400.5 195 L 0 195 Z M 0 100"/></clipPath><clipPath id="c"><path d="M 83 0 L 400.5 0 L 400.5 101 L 83 101 Z M 83 0"/></clipPath><clipPath id="d"><path d="M 0 45 L 400.5 45 L 400.5 101 L 0 101 Z M 0 45"/></clipPath><clipPath id="e"><path d="M 0 100 L 318 100 L 318 200.050781 L 0 200.050781 Z M 0 100"/></clipPath><clipPath id="f"><path d="M 0 100 L 400.5 100 L 400.5 155 L 0 155 Z M 0 100"/></clipPath></defs><g><g clip-path="url(#a)" id="change1_1"><path d="M 0 100.027344 C 0 100.027344 13.5 11.226562 43.601562 6.023438 C 73.699219 0.824219 75.601562 82.125 106.398438 86.625 C 119.5 88.539062 127.246094 75.257812 134.089844 61.976562 C 143.339844 44.03125 150.945312 26.085938 167.898438 45.625 C 181.820312 61.671875 199.019531 56.914062 215.855469 52.15625 C 234.6875 46.835938 253.066406 41.511719 265.898438 65.324219 C 280.761719 92.734375 302.375 88.757812 323.441406 84.78125 C 336.964844 82.230469 350.257812 79.679688 361.398438 85.425781 C 389.101562 99.726562 400.5 100.027344 400.5 100.027344 L 0 100.027344" fill="#ae2689"/></g><g clip-path="url(#b)" id="change2_1"><path d="M 400.5 100.027344 C 400.5 100.027344 387 188.925781 356.898438 194.125 C 326.800781 199.324219 324.898438 118.027344 294.101562 113.527344 C 281 111.613281 273.253906 124.894531 266.410156 138.171875 C 257.160156 156.117188 249.554688 174.066406 232.601562 154.527344 C 218.675781 138.480469 201.480469 143.238281 184.644531 147.992188 C 165.8125 153.316406 147.429688 158.640625 134.601562 134.824219 C 119.738281 107.417969 98.125 111.394531 77.058594 115.367188 C 63.539062 117.921875 50.242188 120.472656 39.101562 114.726562 C 11.398438 100.425781 0 100.027344 0 100.027344 L 400.5 100.027344" fill="#ee3184"/></g><g clip-path="url(#c)" id="change3_1"><path d="M 400.5 100.027344 C 400.5 100.027344 389.101562 99.726562 361.398438 85.425781 C 356.4375 82.863281 351.046875 81.953125 345.398438 81.953125 C 338.367188 81.953125 330.9375 83.367188 323.441406 84.78125 C 315.941406 86.199219 308.378906 87.613281 301.070312 87.613281 C 287.847656 87.613281 275.472656 82.976562 265.898438 65.324219 C 265.617188 64.796875 265.328125 64.28125 265.039062 63.78125 C 265.113281 63.789062 265.191406 63.800781 265.269531 63.808594 C 269.050781 64.222656 272.535156 64.636719 275.699219 64.636719 C 285.730469 64.636719 292.523438 60.484375 295.199219 39.027344 C 298.332031 13.925781 310.597656 0 324.160156 0 C 334.429688 0 345.441406 7.976562 353.800781 25.125 C 373.199219 64.925781 400.5 100.027344 400.5 100.027344 M 108.890625 86.8125 C 108.082031 86.8125 107.253906 86.75 106.398438 86.625 C 96.132812 85.125 89.078125 75.089844 83.117188 62.574219 C 95.492188 49.320312 110.402344 41.925781 125.382812 41.925781 C 131.339844 41.925781 137.304688 43.09375 143.128906 45.523438 C 140.03125 50.105469 137.148438 56.039062 134.089844 61.976562 C 127.691406 74.394531 120.503906 86.8125 108.890625 86.8125" fill="#9965b2"/></g><g clip-path="url(#d)" id="change4_1"><path d="M 400.5 100.027344 L 0 100.027344 C 11.5 97.625 58.601562 89.125 82.699219 63.027344 C 82.839844 62.871094 82.976562 62.722656 83.117188 62.574219 C 89.078125 75.089844 96.132812 85.125 106.398438 86.625 C 107.253906 86.75 108.082031 86.8125 108.890625 86.8125 C 120.503906 86.8125 127.691406 74.394531 134.089844 61.976562 C 137.148438 56.039062 140.03125 50.105469 143.128906 45.523438 C 151.15625 48.875 158.914062 54.625 166 63.027344 C 175.078125 73.789062 186.425781 77.242188 197.238281 77.242188 C 216.566406 77.242188 234.199219 66.226562 234.199219 66.226562 C 240.925781 63.730469 247.242188 62.980469 253.074219 62.980469 C 257.328125 62.980469 261.324219 63.378906 265.039062 63.78125 C 265.328125 64.28125 265.617188 64.796875 265.898438 65.324219 C 275.472656 82.976562 287.847656 87.613281 301.070312 87.613281 C 308.378906 87.613281 315.941406 86.199219 323.441406 84.78125 C 330.9375 83.367188 338.367188 81.953125 345.398438 81.953125 C 351.046875 81.953125 356.4375 82.863281 361.398438 85.425781 C 389.101562 99.726562 400.5 100.027344 400.5 100.027344" fill="#7d2c8c"/></g><g clip-path="url(#e)" id="change5_1"><path d="M 76.339844 200.050781 C 66.070312 200.050781 55.058594 192.074219 46.699219 174.925781 C 27.300781 135.125 0 100.027344 0 100.027344 C 0 100.027344 11.398438 100.425781 39.101562 114.726562 C 44.0625 117.285156 49.453125 118.199219 55.101562 118.199219 C 62.132812 118.199219 69.5625 116.785156 77.058594 115.367188 C 84.558594 113.953125 92.125 112.539062 99.433594 112.539062 C 112.65625 112.539062 125.027344 117.171875 134.601562 134.824219 C 134.863281 135.316406 135.132812 135.792969 135.402344 136.261719 C 135.34375 136.253906 135.285156 136.25 135.230469 136.242188 C 131.449219 135.832031 127.964844 135.417969 124.800781 135.417969 C 114.769531 135.417969 107.976562 139.566406 105.300781 161.027344 C 102.167969 186.125 89.902344 200.046875 76.339844 200.050781 M 275.117188 158.125 C 269.179688 158.125 263.234375 156.964844 257.421875 154.546875 C 260.5 149.980469 263.367188 144.078125 266.410156 138.171875 C 272.808594 125.757812 279.996094 113.339844 291.609375 113.339844 C 292.414062 113.339844 293.246094 113.402344 294.101562 113.527344 C 304.347656 115.023438 311.398438 125.023438 317.351562 137.511719 C 304.984375 150.746094 290.085938 158.125 275.117188 158.125" fill="#f38eb4"/></g><g clip-path="url(#f)" id="change6_1"><path d="M 257.421875 154.546875 C 249.375 151.203125 241.601562 145.445312 234.5 137.027344 C 225.421875 126.261719 214.074219 122.808594 203.257812 122.808594 C 183.933594 122.808594 166.300781 133.824219 166.300781 133.824219 C 159.570312 136.324219 153.257812 137.070312 147.421875 137.070312 C 143.148438 137.070312 139.132812 136.667969 135.402344 136.261719 C 135.132812 135.792969 134.863281 135.316406 134.601562 134.824219 C 125.027344 117.171875 112.65625 112.539062 99.433594 112.539062 C 92.125 112.539062 84.558594 113.953125 77.058594 115.367188 C 69.5625 116.785156 62.132812 118.199219 55.101562 118.199219 C 49.453125 118.199219 44.0625 117.285156 39.101562 114.726562 C 11.398438 100.425781 0 100.027344 0 100.027344 L 400.5 100.027344 C 389 102.425781 341.898438 110.925781 317.800781 137.027344 C 317.648438 137.1875 317.5 137.351562 317.351562 137.511719 C 311.398438 125.023438 304.347656 115.023438 294.101562 113.527344 C 293.246094 113.402344 292.414062 113.339844 291.609375 113.339844 C 279.996094 113.339844 272.808594 125.757812 266.410156 138.171875 C 263.367188 144.078125 260.5 149.980469 257.421875 154.546875" fill="#ed4d8d"/></g></g></svg>