<svg id="visual" viewBox="0 0 900 600" width="900" height="600" xmlns="http://www.w3.org/2000/svg" xmlns:xlink="http://www.w3.org/1999/xlink" version="1.1"><path d="M0 223L13.7 211C27.3 199 54.7 175 82 182C109.3 189 136.7 227 163.8 230C191 233 218 201 245.2 190C272.3 179 299.7 189 327 178C354.3 167 381.7 135 409 128C436.3 121 463.7 139 491 169C518.3 199 545.7 241 573 238C600.3 235 627.7 187 654.8 176C682 165 709 191 736.2 194C763.3 197 790.7 177 818 170C845.3 163 872.7 169 886.3 172L900 175L900 0L886.3 0C872.7 0 845.3 0 818 0C790.7 0 763.3 0 736.2 0C709 0 682 0 654.8 0C627.7 0 600.3 0 573 0C545.7 0 518.3 0 491 0C463.7 0 436.3 0 409 0C381.7 0 354.3 0 327 0C299.7 0 272.3 0 245.2 0C218 0 191 0 163.8 0C136.7 0 109.3 0 82 0C54.7 0 27.3 0 13.7 0L0 0Z" fill="#6198ff"></path><path d="M0 319L13.7 317C27.3 315 54.7 311 82 325C109.3 339 136.7 371 163.8 372C191 373 218 343 245.2 329C272.3 315 299.7 317 327 317C354.3 317 381.7 315 409 327C436.3 339 463.7 365 491 382C518.3 399 545.7 407 573 395C600.3 383 627.7 351 654.8 339C682 327 709 335 736.2 336C763.3 337 790.7 331 818 327C845.3 323 872.7 321 886.3 320L900 319L900 173L886.3 170C872.7 167 845.3 161 818 168C790.7 175 763.3 195 736.2 192C709 189 682 163 654.8 174C627.7 185 600.3 233 573 236C545.7 239 518.3 197 491 167C463.7 137 436.3 119 409 126C381.7 133 354.3 165 327 176C299.7 187 272.3 177 245.2 188C218 199 191 231 163.8 228C136.7 225 109.3 187 82 180C54.7 173 27.3 197 13.7 209L0 221Z" fill="#005fee"></path><path d="M0 409L13.7 398C27.3 387 54.7 365 82 374C109.3 383 136.7 423 163.8 425C191 427 218 391 245.2 376C272.3 361 299.7 367 327 367C354.3 367 381.7 361 409 373C436.3 385 463.7 415 491 433C518.3 451 545.7 457 573 447C600.3 437 627.7 411 654.8 400C682 389 709 393 736.2 390C763.3 387 790.7 377 818 375C845.3 373 872.7 379 886.3 382L900 385L900 317L886.3 318C872.7 319 845.3 321 818 325C790.7 329 763.3 335 736.2 334C709 333 682 325 654.8 337C627.7 349 600.3 381 573 393C545.7 405 518.3 397 491 380C463.7 363 436.3 337 409 325C381.7 313 354.3 315 327 315C299.7 315 272.3 313 245.2 327C218 341 191 371 163.8 370C136.7 369 109.3 337 82 323C54.7 309 27.3 313 13.7 315L0 317Z" fill="#004cbb"></path><path d="M0 481L13.7 475C27.3 469 54.7 457 82 467C109.3 477 136.7 509 163.8 514C191 519 218 497 245.2 490C272.3 483 299.7 491 327 486C354.3 481 381.7 463 409 464C436.3 465 463.7 485 491 497C518.3 509 545.7 513 573 511C600.3 509 627.7 501 654.8 491C682 481 709 469 736.2 467C763.3 465 790.7 473 818 481C845.3 489 872.7 497 886.3 501L900 505L900 383L886.3 380C872.7 377 845.3 371 818 373C790.7 375 763.3 385 736.2 388C709 391 682 387 654.8 398C627.7 409 600.3 435 573 445C545.7 455 518.3 449 491 431C463.7 413 436.3 383 409 371C381.7 359 354.3 365 327 365C299.7 365 272.3 359 245.2 374C218 389 191 425 163.8 423C136.7 421 109.3 381 82 372C54.7 363 27.3 385 13.7 396L0 407Z" fill="#005fee"></path><path d="M0 601L13.7 601C27.3 601 54.7 601 82 601C109.3 601 136.7 601 163.8 601C191 601 218 601 245.2 601C272.3 601 299.7 601 327 601C354.3 601 381.7 601 409 601C436.3 601 463.7 601 491 601C518.3 601 545.7 601 573 601C600.3 601 627.7 601 654.8 601C682 601 709 601 736.2 601C763.3 601 790.7 601 818 601C845.3 601 872.7 601 886.3 601L900 601L900 503L886.3 499C872.7 495 845.3 487 818 479C790.7 471 763.3 463 736.2 465C709 467 682 479 654.8 489C627.7 499 600.3 507 573 509C545.7 511 518.3 507 491 495C463.7 483 436.3 463 409 462C381.7 461 354.3 479 327 484C299.7 489 272.3 481 245.2 488C218 495 191 517 163.8 512C136.7 507 109.3 475 82 465C54.7 455 27.3 467 13.7 473L0 479Z" fill="#6198ff"></path></svg>